<svg width="50" height="50" viewBox="0 0 50 50" fill="none" xmlns="http://www.w3.org/2000/svg">
<path d="M38.5548 36.0646L40.4054 38.6349H9.60461L11.4552 36.0646H38.5548Z" fill="white"/>
<path fill-rule="evenodd" clip-rule="evenodd" d="M38.9747 15.9249V19.4249L37.2853 19.4747C36.2353 19.4947 35.3947 20.3554 35.3947 21.4054V33.4952H32.9347V21.3048C32.9346 20.2949 32.1145 19.4747 31.1046 19.4747C30.0949 19.4749 29.2756 20.295 29.2755 21.3048V33.4952H26.8253V21.3048C26.8252 20.295 26.0051 19.4748 24.9952 19.4747C23.9853 19.4747 23.1555 20.2949 23.1554 21.3048V33.4952H20.6954V21.295C20.6954 20.2951 19.8751 19.4748 18.8751 19.4747C17.8751 19.4747 17.0548 20.295 17.0548 21.295V33.4952H14.5851V21.2853C14.5851 20.3353 13.8347 19.5447 12.8947 19.4747L11.0255 19.4347V15.9249L24.9952 10.4952L38.9747 15.9249ZM13.0646 17.3448H36.6847L25.0001 13.256L13.0646 17.3448Z" fill="white"/>
<path d="M6.5963 49.875H6.76634H43.4137C46.9544 49.785 49.795 46.945 49.875 43.415V43.245V6.425C49.715 3.095 47.0844 0.395 43.7438 0.145L43.4137 0.125H43.2437H6.65631H6.5863C2.96557 0.235 0.125 3.145 0.125 6.765V43.405L0.17501 44.065C0.57509 47.295 3.33565 49.795 6.5963 49.875ZM2.52548 6.335C2.74553 4.145 4.56589 2.495 6.77634 2.495H43.2537L43.6838 2.515C45.8742 2.735 47.5245 4.555 47.5245 6.755V43.455C47.4045 45.655 45.6642 47.395 43.4637 47.505H43.2537L6.76634 47.515C4.48588 47.515 2.6155 45.735 2.50548 43.475V43.255L2.52548 6.345V6.335Z" fill="#2F55D9"/>
</svg>
