<svg width="105" height="34" viewBox="0 0 105 34" fill="none" xmlns="http://www.w3.org/2000/svg">
<path d="M40.0363 25.7462V7.00761H46.6674C48.2604 7.00761 49.6477 7.35618 50.8292 8.05471C52.0289 8.73504 52.95 9.77234 53.5939 11.1694C54.256 12.5469 54.5878 14.2841 54.5878 16.3769C54.5878 18.4697 54.256 20.2153 53.5939 21.6124C52.95 22.9898 52.0275 24.0285 50.8292 24.7271C49.6477 25.4074 48.2604 25.7476 46.6674 25.7476H40.0363V25.7462ZM43.0698 23.0612H46.6674C47.5983 23.0612 48.413 22.8638 49.1102 22.4705C49.8255 22.0771 50.3714 21.4948 50.748 20.7249C51.1414 19.9549 51.3387 19.0072 51.3387 17.8789V14.872C51.3387 13.7451 51.1414 12.796 50.748 12.0261C50.3714 11.2562 49.8255 10.6752 49.1102 10.2805C48.4116 9.88713 47.5983 9.68975 46.6674 9.68975H43.0698V23.0584V23.0612ZM72.5522 25.7462H69.3843L67.7465 20.6717H60.7402L59.0758 25.7462H56.0157L62.4046 7.00761H66.1899L72.5522 25.7462ZM66.9948 18.0679L65.1428 12.5105L64.2832 9.79894H64.1489L63.2893 12.5105L61.4373 18.0679H66.9948ZM78.489 18.2023V25.7462H75.4555V7.00761H83.5355C84.6638 7.00761 85.6199 7.23159 86.4081 7.67815C87.213 8.1261 87.8401 8.77004 88.2867 9.61135C88.7346 10.4345 88.9586 11.4368 88.9586 12.6183C88.9586 13.9243 88.645 15.0428 88.0193 15.9737C87.4104 16.8864 86.5158 17.522 85.3344 17.8803L89.3618 25.7462H85.9797L82.2477 18.2023H78.489ZM78.489 15.6252H83.3214C83.8225 15.6252 84.2523 15.5356 84.6092 15.3564C84.9858 15.1772 85.2714 14.9182 85.4687 14.5781C85.6661 14.2197 85.7641 13.7899 85.7641 13.2888V11.9995C85.7641 11.4802 85.6661 11.0504 85.4687 10.7102C85.2714 10.3701 84.9858 10.1111 84.6092 9.93192C84.2509 9.75274 83.8225 9.66315 83.3214 9.66315H78.489V15.6224V15.6252ZM104.928 9.69115H99.3442V25.7448H96.3107V9.69115H90.7266V7.00621H104.928V9.69115Z" fill="white"/>
<path d="M29.1383 3.47343C30.1168 2.01967 29.1383 0 27.4556 0H2.07196C0.389329 0.0014183 -0.589173 2.02109 0.38933 3.47343L5.31544 10.7876H24.2094L29.1355 3.47343H29.1383Z" fill="#5BB966"/>
<path d="M27.4558 10.7876H24.2109L16.8966 21.6476C15.8509 23.2006 13.6769 23.2006 12.6313 21.6476L5.31698 10.7876H2.0721C0.389465 10.7876 -0.589037 12.8073 0.390866 14.2611L12.6326 32.4352C13.6783 33.9883 15.8523 33.9883 16.898 32.4352L29.1398 14.2611C30.1183 12.8073 29.1398 10.7876 27.4572 10.7876H27.4558Z" fill="#016323"/>
<path d="M16.8967 21.6476L24.2109 10.7876H5.31702L12.6313 21.6476C13.677 23.2006 15.851 23.2006 16.8967 21.6476Z" fill="#028831"/>
</svg>
