<svg width="30" height="34" viewBox="0 0 30 34" fill="none" xmlns="http://www.w3.org/2000/svg">
<path d="M29.1388 3.47343C30.1173 2.01967 29.1388 0 27.4562 0H2.07248C0.389848 0.0014183 -0.588654 2.02109 0.389848 3.47343L5.31596 10.7876H24.2099L29.136 3.47343H29.1388Z" fill="#5BB966"/>
<path d="M27.4563 10.7876H24.2114L16.8971 21.6476C15.8514 23.2006 13.6775 23.2006 12.6318 21.6476L5.31749 10.7876H2.07262C0.389984 10.7876 -0.588518 12.8073 0.391384 14.2611L12.6332 32.4352C13.6789 33.9883 15.8528 33.9883 16.8985 32.4352L29.1403 14.2611C30.1188 12.8073 29.1403 10.7876 27.4577 10.7876H27.4563Z" fill="#016323"/>
<path d="M16.8972 21.6476L24.2115 10.7876H5.31754L12.6318 21.6476C13.6775 23.2006 15.8515 23.2006 16.8972 21.6476Z" fill="#028831"/>
</svg>
