<svg width="112" height="34" viewBox="0 0 112 34" fill="none" xmlns="http://www.w3.org/2000/svg">
<path d="M47.5505 26.1686V7.43011H54.1816C55.7746 7.43011 57.1619 7.77868 58.342 8.47721C59.5417 9.15754 60.4628 10.1948 61.1067 11.5919C61.7688 12.9694 62.0992 14.7066 62.0992 16.7994C62.0992 18.8922 61.7688 20.6378 61.1067 22.0349C60.4628 23.4123 59.5403 24.451 58.342 25.1496C57.1605 25.8299 55.7732 26.1701 54.1816 26.1701H47.5505V26.1686ZM50.584 23.4837H54.1816C55.1125 23.4837 55.9272 23.2863 56.6244 22.893C57.3397 22.4996 57.8856 21.9173 58.2622 21.1474C58.6556 20.3774 58.8529 19.4297 58.8529 18.3014V15.2945C58.8529 14.1676 58.6556 13.2185 58.2622 12.4486C57.887 11.6787 57.3411 11.0977 56.6244 10.703C55.9258 10.3096 55.1125 10.1122 54.1816 10.1122H50.584V23.4809V23.4837ZM78.0716 26.1686H66.072V7.43011H78.0716V10.115H69.1055V15.3505H77.2401V18.0355H69.1055V23.4851H78.0716V26.1701V26.1686ZM94.2792 26.1686H82.2796V7.43011H94.2792V10.115H85.3131V15.3505H93.4477V18.0355H85.3131V23.4851H94.2792V26.1701V26.1686ZM101.519 26.1686H98.4858V7.43011H106.539C107.684 7.43011 108.66 7.66249 109.465 8.12865C110.288 8.5934 110.915 9.24713 111.344 10.0885C111.772 10.9298 111.987 11.9223 111.987 13.0688C111.987 14.2152 111.773 15.1811 111.344 16.0225C110.914 16.8638 110.288 17.5259 109.465 18.0089C108.66 18.4736 107.684 18.7074 106.539 18.7074H101.519V26.1701V26.1686ZM101.519 10.0885V16.0477H106.352C106.853 16.0477 107.283 15.9581 107.641 15.7789C108.016 15.5997 108.303 15.3407 108.5 15.0006C108.698 14.6422 108.796 14.2124 108.796 13.7113V12.422C108.796 11.9027 108.698 11.4729 108.5 11.1327C108.303 10.7926 108.017 10.5336 107.641 10.3544C107.283 10.1752 106.854 10.0857 106.352 10.0857H101.519V10.0885Z" fill="white"/>
<path d="M15.4657 11.9965C17.0279 11.0432 19.5617 11.0432 21.1239 11.9965L35.4165 20.7148C36.9787 21.6681 36.9787 23.2122 35.4165 24.1655L21.1239 32.8838C19.5617 33.8371 17.0279 33.8371 15.4657 32.8838L1.17168 24.1655C-0.390561 23.2122 -0.390561 21.6681 1.17168 20.7148L15.4657 11.9965Z" fill="#2346AF"/>
<path d="M15.4657 0.714979C17.0279 -0.238326 19.5617 -0.238326 21.1239 0.714979L35.4179 9.43331C36.9801 10.3866 36.9801 11.9307 35.4179 12.884L21.1239 21.6023C19.5617 22.5556 17.0279 22.5556 15.4657 21.6023L1.17168 12.884C-0.390561 11.9307 -0.390561 10.3866 1.17168 9.43331L15.4657 0.714979Z" fill="#829AF2"/>
<path d="M15.4657 11.9965C17.0279 11.0432 19.5617 11.0432 21.1239 11.9965L28.9981 16.7994L21.1239 21.6023C19.5617 22.5556 17.0279 22.5556 15.4657 21.6023L7.59145 16.7994L15.4657 11.9965Z" fill="#4B6CD8"/>
</svg>
