<svg width="37" height="34" viewBox="0 0 37 34" fill="none" xmlns="http://www.w3.org/2000/svg">
<path d="M15.4657 11.9965C17.0279 11.0432 19.5617 11.0432 21.1239 11.9965L35.4165 20.7148C36.9787 21.6681 36.9787 23.2122 35.4165 24.1655L21.1239 32.8838C19.5617 33.8371 17.0279 33.8371 15.4657 32.8838L1.17168 24.1655C-0.390561 23.2122 -0.390561 21.6681 1.17168 20.7148L15.4657 11.9965Z" fill="#2346AF"/>
<path d="M15.4657 0.714979C17.0279 -0.238326 19.5617 -0.238326 21.1239 0.714979L35.4179 9.43331C36.9801 10.3866 36.9801 11.9307 35.4179 12.884L21.1239 21.6023C19.5617 22.5556 17.0279 22.5556 15.4657 21.6023L1.17168 12.884C-0.390561 11.9307 -0.390561 10.3866 1.17168 9.43331L15.4657 0.714979Z" fill="#829AF2"/>
<path d="M15.4657 11.9965C17.0279 11.0432 19.5616 11.0432 21.1239 11.9965L28.9981 16.7994L21.1239 21.6023C19.5616 22.5556 17.0279 22.5556 15.4657 21.6023L7.59143 16.7994L15.4657 11.9965Z" fill="#4B6CD8"/>
</svg>
