<svg width="126" height="51" viewBox="0 0 126 51" fill="none" xmlns="http://www.w3.org/2000/svg">
<path d="M15.3456 27.9012C15.3456 28.7112 15.4848 29.4218 15.7548 30.0418L15.8652 30.2615C16.1252 30.7715 16.4554 31.2219 16.8554 31.5818L17.0253 31.7313C17.4353 32.0713 17.8957 32.3413 18.3857 32.5213L18.5956 32.5916C19.6755 32.9315 20.8253 32.9015 21.8652 32.5115L22.0751 32.4217C22.5551 32.2117 23.0052 31.9213 23.4052 31.5613V31.5711L23.5751 31.4119C23.9551 31.0219 24.2651 30.5613 24.4951 30.0213L24.5956 29.7918C24.8056 29.2318 24.9052 28.6012 24.9052 27.9012V16.2215H27.5751V28.0516C27.5751 29.4215 27.295 30.6317 26.7451 31.6717L26.6249 31.8816C25.995 32.9615 25.115 33.8217 23.9951 34.4217C22.8851 35.0216 21.5748 35.3211 20.1249 35.3211C18.6752 35.3211 17.3754 35.0215 16.2656 34.4217H16.2451C15.1351 33.8117 14.2549 32.9614 13.6249 31.8914C12.995 30.8015 12.6748 29.5115 12.6747 28.0516V16.2215H15.3456V27.9012Z" fill="white"/>
<path fill-rule="evenodd" clip-rule="evenodd" d="M81.2656 20.5213C82.6554 20.5213 83.8853 20.8318 84.9052 21.4617L85.0956 21.5818C86.0254 22.1918 86.7652 23.0316 87.2851 24.0613L87.3857 24.2713L87.3652 24.2811C87.8551 25.331 88.1054 26.5513 88.1054 27.9012C88.1054 29.2711 87.8554 30.5014 87.3554 31.5613L87.2548 31.7713C86.6948 32.8713 85.8949 33.7419 84.8749 34.3719C83.855 34.9917 82.6349 35.3016 81.2451 35.3016C79.9453 35.3015 78.7855 35.0214 77.8056 34.4715L77.6054 34.3514C76.5855 33.7314 75.7855 32.8516 75.2255 31.7518C74.6755 30.6318 74.3954 29.3414 74.3954 27.8914C74.3955 26.4416 74.685 25.1417 75.2548 24.0418L75.3652 23.8318C75.9252 22.8218 76.6952 22.021 77.6552 21.451L77.8554 21.3416C78.8354 20.8016 79.9856 20.5213 81.2656 20.5213ZM81.2451 22.9715C80.4352 22.9715 79.7454 23.1318 79.1855 23.4617L78.955 23.6111C78.435 23.9811 78.0253 24.4718 77.7353 25.0818L77.6249 25.3514C77.3449 26.0714 77.1953 26.9314 77.1953 27.8914C77.1953 29.3714 77.5455 30.5815 78.2255 31.4715L78.3554 31.6316C79.0353 32.4214 80.0151 32.821 81.2548 32.8211C82.6148 32.8211 83.6454 32.3612 84.3154 31.4412L84.4355 31.2713L84.4247 31.2518C85.0147 30.3619 85.3153 29.2217 85.3154 27.8719C85.3154 26.4019 84.9651 25.2011 84.2851 24.3211C83.6151 23.4313 82.5849 22.9715 81.2451 22.9715Z" fill="white"/>
<path d="M103.745 34.9012H101.415V33.1316L101.195 33.3914C100.915 33.7214 100.595 34.0118 100.255 34.2518L99.9257 34.4715C99.0457 35.0115 97.955 35.2811 96.705 35.2811C95.7451 35.281 94.9253 35.1213 94.2753 34.8113C93.6254 34.5014 93.0857 34.1013 92.6757 33.6014C92.3158 33.1614 92.0351 32.6816 91.8251 32.1717L91.7353 31.951C91.5754 31.5012 91.4452 31.0615 91.3652 30.6316L91.2949 30.201C91.2149 29.6212 91.1757 29.1211 91.1757 28.6912V20.9119H93.8456V27.7918C93.8457 28.3417 93.8855 28.9119 93.9755 29.5018L94.0156 29.7117C94.1156 30.2016 94.2749 30.682 94.5048 31.1219L94.6054 31.3016C94.8554 31.7215 95.1955 32.0716 95.6054 32.3416L95.7851 32.451C96.235 32.691 96.7951 32.8113 97.455 32.8113C97.885 32.8113 98.3053 32.7516 98.6953 32.6316L98.8652 32.5711C99.3051 32.4011 99.6856 32.1313 100.016 31.7713L100.136 31.6316C100.416 31.2917 100.635 30.8614 100.795 30.3416L100.806 30.3318L100.875 30.1014C100.995 29.6314 101.076 29.091 101.096 28.491V20.9012H103.745V34.9012Z" fill="white"/>
<path d="M63.4052 15.8113C65.555 15.8113 67.3549 16.3614 68.7548 17.4412L69.0156 17.6512C70.2755 18.7012 71.1753 20.0918 71.6953 21.7918L69.0253 22.5115C68.6754 21.2916 68.0752 20.3118 67.2353 19.5818L67.0654 19.4412C66.1354 18.6912 64.8952 18.3113 63.4052 18.3113C62.1552 18.3113 61.0748 18.5811 60.2148 19.1111L60.0449 19.2215V19.1912C59.2649 19.7212 58.6452 20.4417 58.1953 21.3416L58.0156 21.7313C57.5756 22.8112 57.3554 24.0814 57.3554 25.5213V26.0516C57.3954 27.2614 57.6149 28.3614 58.0048 29.3113L58.1855 29.701C58.6355 30.6009 59.2552 31.3214 60.0351 31.8514L60.205 31.9617C61.075 32.4917 62.1552 32.7615 63.4052 32.7615C64.8952 32.7615 66.1254 32.3816 67.0654 31.6316L67.2353 31.491C68.0752 30.761 68.6754 29.781 69.0253 28.5711L71.6953 29.2918C71.1753 30.9916 70.2754 32.3815 69.0156 33.4315L68.7548 33.6414C67.3449 34.7213 65.5551 35.2713 63.4052 35.2713C61.5452 35.2713 59.9349 34.8616 58.6249 34.0516C57.395 33.2916 56.4253 32.2211 55.7353 30.9012L55.5956 30.6316C54.9057 29.1817 54.5556 27.4617 54.5556 25.5418C54.5556 23.6218 54.9056 21.911 55.5956 20.451L55.7353 20.1815C56.4252 18.8516 57.4051 17.8018 58.6249 17.0418L58.8749 16.8914C60.1349 16.1714 61.6552 15.8113 63.4052 15.8113Z" fill="white"/>
<path d="M121.645 20.9012H125.825V23.2313H121.655V29.991C121.665 30.241 121.665 30.4615 121.665 30.6815L121.695 30.9813C121.735 31.2712 121.825 31.5315 121.955 31.7615L122.075 31.951C122.395 32.391 122.866 32.6417 123.476 32.7117C124.065 32.7717 124.865 32.8212 125.825 32.6912V34.9012C125.075 35.0512 124.325 35.1219 123.605 35.1219H123.275C122.505 35.1019 121.795 34.9316 121.045 34.5916C120.505 34.3516 119.966 33.8415 119.596 33.2518L119.455 33.0115C119.195 32.5115 119.055 31.9214 119.025 31.1815C118.995 30.5816 118.995 29.8817 118.995 29.1219V16.991H121.636L121.645 16.9813V20.9012Z" fill="white"/>
<path d="M38.6953 20.5418C39.6552 20.5418 40.475 20.6918 41.1249 21.0018L41.3652 21.1219C41.915 21.4118 42.3648 21.7816 42.7148 22.2215L42.8652 22.4119C43.205 22.8618 43.4653 23.3513 43.6552 23.8611L43.8056 24.3113C43.9356 24.7413 44.0356 25.1812 44.0956 25.6111L44.1454 26.0311C44.1954 26.4311 44.2148 26.8019 44.2148 27.1219V34.9012H41.5449V28.0311C41.5448 27.4812 41.4954 26.9214 41.3954 26.3416C41.3254 25.8216 41.1748 25.3414 40.9648 24.8914L40.8749 24.701C40.615 24.2012 40.2452 23.7912 39.7753 23.4813C39.3154 23.1813 38.6854 23.0213 37.9355 23.0213C37.4556 23.0213 36.9855 23.1014 36.5556 23.2713H36.5351C36.0951 23.4313 35.6952 23.6916 35.3652 24.0516L35.2851 24.1414C34.9951 24.4914 34.7649 24.9413 34.5849 25.4813L34.5654 25.5613C34.4054 26.1313 34.3154 26.8316 34.3154 27.6316V34.9217H31.6454V20.951H33.9853V22.701L34.205 22.4412C34.565 22.0213 34.9849 21.6511 35.4648 21.3611L35.6357 21.2615C36.4856 20.7817 37.5154 20.5418 38.6953 20.5418Z" fill="white"/>
<path d="M50.9453 34.9012H48.3154V20.9715H50.9453V34.9012Z" fill="white"/>
<path d="M110.155 23.4217L110.386 23.0818C110.466 22.9618 110.556 22.8413 110.636 22.7313C110.926 22.3614 111.215 22.0112 111.565 21.7713C111.915 21.5214 112.325 21.3214 112.755 21.1815L113.115 21.0711L113.105 21.0818C113.585 20.9518 114.166 20.9019 114.926 20.9119H115.325V23.241C114.835 23.241 114.745 23.2415 114.176 23.2615C113.626 23.2815 112.915 23.4612 112.455 23.6912L112.266 23.8016C111.816 24.0915 111.455 24.4512 111.195 24.8611L111.145 24.951C110.925 25.341 110.755 25.7818 110.645 26.2518C110.535 26.7517 110.476 27.2817 110.476 27.8416V34.9012H107.825V20.9012H110.155V23.4217Z" fill="white"/>
<path d="M50.9453 18.4217H48.3154V15.8914H50.9453V18.4217Z" fill="white"/>
<path d="M63.4052 35.2713C65.555 35.2713 67.3549 34.7212 68.7548 33.6414L69.0156 33.4315C70.2754 32.3815 71.1753 30.9916 71.6953 29.2918L69.0253 28.5711C68.6754 29.791 68.0752 30.7708 67.2353 31.5008L67.0654 31.6414C66.1354 32.3914 64.8952 32.7713 63.4052 32.7713C62.1552 32.7713 61.0748 32.5015 60.2148 31.9715L60.0449 31.8611V31.8914C59.2649 31.3614 58.6452 30.641 58.1953 29.741L58.0156 29.3514C57.5756 28.2714 57.3554 27.0013 57.3554 25.5613V25.0311C57.3954 23.8212 57.6149 22.7212 58.0048 21.7713L58.1855 21.3816C58.6355 20.4817 59.2552 19.7612 60.0351 19.2313L60.205 19.1209C61.075 18.5909 62.1552 18.3211 63.4052 18.3211C64.8952 18.3211 66.1254 18.701 67.0654 19.451L67.2353 19.5916C68.0752 20.3216 68.6754 21.3016 69.0253 22.5115L71.6953 21.7918C71.1753 20.0918 70.2755 18.7012 69.0156 17.6512L68.7548 17.4412C67.3449 16.3613 65.5551 15.8113 63.4052 15.8113C61.5452 15.8113 59.9349 16.2211 58.6249 17.0311C57.395 17.7911 56.4253 18.8615 55.7353 20.1815L55.5956 20.451C54.9057 21.9009 54.5556 23.6219 54.5556 25.5418C54.5556 27.4618 54.9056 29.1716 55.5956 30.6316L55.7353 30.9012C56.4252 32.231 57.4051 33.2808 58.6249 34.0408L58.8749 34.1912C60.1349 34.9112 61.6552 35.2713 63.4052 35.2713Z" fill="white"/>
<path d="M44.3865 47.9315H44.1766L7.70391 47.9415C5.42437 47.9415 3.55475 46.1615 3.44477 43.9015V43.6815V6.98145L3.46476 6.77145C3.68472 4.58145 5.50435 2.93145 7.71391 2.93145H44.1766L44.5965 2.94145C46.7861 3.16145 48.4357 4.98145 48.4357 7.18145V9.63145H50.8052V6.85145C50.6353 3.52145 48.0058 0.821453 44.6765 0.571453L44.3465 0.551453H44.1766H7.59393H7.52395C3.90468 0.661453 1.07524 3.57145 1.06525 7.19145V43.8315L1.11524 44.4915C1.51516 47.7215 4.2646 50.2215 7.53395 50.3015H7.70391H44.3465C47.8858 50.2115 50.7253 47.3715 50.8152 43.8415V43.6715V41.2215H48.4457V43.8815C48.3257 46.0815 46.5861 47.8215 44.3865 47.9315Z" fill="#2F55D9"/>
</svg>
